<?xml version="1.0" standalone="no"?>
<!DOCTYPE svg PUBLIC "-//W3C//DTD SVG 20010904//EN"
 "http://www.w3.org/TR/2001/REC-SVG-20010904/DTD/svg10.dtd">
<svg version="1.0" xmlns="http://www.w3.org/2000/svg"
 width="700.000000pt" height="700.000000pt" viewBox="0 0 700.000000 700.000000"
 preserveAspectRatio="xMidYMid meet">
<metadata>
Created by potrace 1.14, written by Peter Selinger 2001-2017
</metadata>
<g transform="translate(0.000000,700.000000) scale(0.100000,-0.100000)"
fill="#000000" stroke="none">
<path d="M2035 5529 c-16 -5 -41 -10 -55 -13 -14 -2 -58 -16 -99 -31 -219 -80
-403 -257 -501 -483 -36 -83 -37 -84 -88 -102 -85 -30 -192 -94 -266 -160
-113 -101 -154 -159 -297 -421 -66 -123 -136 -251 -154 -284 -18 -33 -46 -85
-62 -115 -17 -30 -55 -100 -85 -155 -30 -55 -74 -136 -98 -180 -23 -44 -68
-120 -98 -170 -120 -195 -186 -377 -220 -599 -14 -97 -7 -361 14 -466 12 -63
53 -206 73 -255 142 -348 398 -623 725 -782 77 -37 241 -97 296 -107 19 -3 46
-8 60 -11 120 -25 324 -34 435 -20 215 27 405 90 582 193 231 135 443 363 568
610 67 133 129 347 144 495 1 5 27 -18 59 -50 78 -80 109 -105 175 -141 54
-29 197 -86 197 -77 0 2 15 -1 33 -6 50 -15 205 -12 280 6 149 35 253 92 363
201 41 40 74 67 75 61 0 -7 2 -20 4 -29 2 -9 6 -34 9 -55 3 -21 7 -45 9 -53
23 -98 46 -176 64 -220 152 -370 400 -639 736 -799 81 -39 232 -94 287 -105
14 -3 35 -7 48 -10 102 -22 379 -36 447 -22 11 2 40 7 65 10 78 11 103 16 190
42 274 83 502 228 688 439 73 82 172 234 217 330 21 44 41 87 45 95 23 48 74
245 87 335 11 76 9 327 -3 410 -23 153 -73 314 -135 434 -22 40 -39 77 -39 80
0 4 -42 85 -93 181 -51 96 -119 225 -151 285 -33 61 -91 171 -131 245 -40 74
-100 189 -135 255 -125 237 -179 318 -276 407 -87 80 -199 148 -313 189 -55
20 -65 27 -78 58 -69 173 -165 299 -307 406 -48 35 -191 113 -225 121 -9 2
-34 8 -56 14 -22 5 -56 13 -75 17 -41 9 -259 10 -310 1 -107 -17 -237 -70
-338 -137 -57 -39 -212 -186 -212 -202 0 -4 -6 -14 -12 -21 -22 -24 -38 -51
-76 -130 -31 -66 -40 -78 -62 -79 -32 -1 -839 -1 -901 0 -45 1 -47 2 -63 44
-46 121 -188 299 -299 376 -163 112 -322 160 -522 159 -60 -1 -123 -5 -140 -9z"/>
</g>
</svg>
